<?xml version="1.0" encoding="UTF-8"?>
<svg id="Layer_1" data-name="Layer 1" xmlns="http://www.w3.org/2000/svg" version="1.1" viewBox="0 0 1280 522">
  <defs>
    <style>
      .cls-1 {
        fill-rule: evenodd;
      }

      .cls-1, .cls-2 {
        fill: #fff;
        stroke-width: 0px;
      }
    </style>
  </defs>
  <g>
    <g>
      <path class="cls-1" d="M1087.8,312.2c-3.4-2.6-9.8-2.3-12.8,2-7,10,7.1,20.8,14.7,11,2.9-3.8,2.7-9.6-1.9-13Z"/>
      <path class="cls-1" d="M1116.4,262.1c-16.3-30.2-53.8-30.9-67.3,0l-88.8,203.1c6.2.8,14.1.6,23.1-1.3-.3-1.1-.5-2.3-.5-3.6,0-7.2,5.9-13.1,13.1-13.1s10,3.3,12,7.9c9.3-4.8,18.9-11.4,28.3-20.5-1.6-1.7-2.7-3.9-2.7-6.5,0-5.1,4.1-9.2,9.2-9.2s4.2.8,5.8,2.1c9.4-11.8,18.2-26.4,25.9-44.5-.6-.1-1.2-.2-1.7-.4-2.5-.8-2.6-1.8-3.1-4.2-.4-1.9-.9-3.2-1.1-5,2.1,0,8.5,2.1,14.3,1.7,8.2-.6,7.3-1,14.4-2.5.4,2.2-.8,8.5-3.9,9.6-.5.2-1,.3-1.6.5,1.4,3.4,2.9,6.7,4.4,9.9,1.8-1.9,4.3-3.1,7.1-3.1,5.3,0,9.7,4.3,9.7,9.7s-3.5,8.8-8.1,9.5c9.9,16.4,21.2,29.1,33,38.6,2.3-3.8,6.5-6.4,11.2-6.4,7.2,0,13.1,5.9,13.1,13.1s-.8,5.3-2.3,7.4c15.9,7.8,31.7,10.8,45.3,10.3l-88.8-203.1ZM1006.3,432.8c-2.2,0-4-1.8-4-4s1.8-4,4-4,4,1.8,4,4-1.8,4-4,4ZM1038.1,408.8c-3,0-5.4-2.4-5.4-5.4s2.4-5.3,5.4-5.3,5.3,2.4,5.3,5.3-2.4,5.4-5.3,5.4ZM1058.5,356.1c-9.5,3.4-9.7,7.3-15.8,14.2-1.6-2.2-1.9-8.5-1.7-11.2.1-1.9-.3-3.3,0-5.3,1.9-12.1,3.3-16.5,13.5-26l1.4,14.6c.5,3.6,2.7,12.4,2.5,13.7ZM1103.1,336.2l-1.6,13.1c-1.4,9.1-2,9.5-6.4,10.6-9.6,2.4-16,2.8-25.9.4-4.1-1-4.8-8.8-5.5-12.1-3.4-17.6-2.9-34.8,3.2-52,1.9-5.5,9.3-22.1,14.9-25.1,6.3,4.3,13.7,19.5,15.9,26,4.2,12.2,6.6,27.3,5.3,39.1ZM1116,359.1c-3.6-3.1-5.3-3.1-8.6-4.6,0-1.4,1.2-6.9,1.6-9,1.6-10,.7-12,1.2-17.8.3-3.7,6.3,3.6,7.2,4.8,8.5,10.8,9.6,31,6.4,35.3-2.3-1.8-4.5-6-7.7-8.6ZM1129.9,397.4c-3,0-5.4-2.4-5.4-5.3s2.4-5.3,5.4-5.3,5.3,2.4,5.3,5.3-2.4,5.3-5.3,5.3ZM1148.9,411.7c-2.5,0-4.5-2-4.5-4.6s2-4.6,4.5-4.6,4.6,2,4.6,4.6-2,4.6-4.6,4.6Z"/>
    </g>
    <path class="cls-1" d="M892.9,328.3l8.3,23,8.3-23c33.2-79.2,88.8-92.9,114.7-89.7l-88.8,203.1c-13.5,30.9-51,30.2-67.3,0l-88.8-203.1c35.2-1.3,85.4,21,113.6,89.7Z"/>
  </g>
  <g>
    <path class="cls-2" d="M146.7,328.8l-59.6-89.9h47.1c17.9,0,34.6,9.3,44,24.6h0c7.2,12,14.2,23.6,21.1,35.6h.6c6.6-11.7,13.2-23,20.2-34.6l.4-.6c9.4-15.5,26.1-24.9,44.2-24.9h44s-59.6,89.9-59.6,89.9c-6.3,9.4-6.2,21.7.1,31.1l72.1,107h-49.1c-17.9,0-34.5-9.2-43.9-24.4l-10.1-16.2c-7.6-12.3-14.5-23.9-21.4-35.9h-.6c-7.2,12.6-14.8,25.2-23,38.4l-8.5,13.7c-9.4,15.2-26,24.4-43.9,24.4h-45.9l71.8-107c6.3-9.4,6.3-21.6,0-31.1Z"/>
    <path class="cls-2" d="M419.8,384.3c-12.6-17-23.6-32.4-35-48.8l-.6.3c.3,19.2.6,38.7.6,58v73.1h0c-34.4,0-62.4-27.9-62.4-62.4v-165.7h0c38.2,0,74.1,18.2,96.7,49l24.5,33.5c12.6,17,23.6,32.4,35,48.8l.6-.3c-.3-19.2-.6-131-.6-131h0c34.4,0,62.4,27.9,62.4,62.4v165.7h0c-38.2,0-74.1-18.2-96.7-49l-24.5-33.5Z"/>
    <path class="cls-2" d="M678,235.3c68.7,0,121.9,51.7,121.9,117.5s-53.2,117.5-121.9,117.5-121.9-51.7-121.9-117.5,53.2-117.5,121.9-117.5ZM678,412c32.1,0,57-26.1,57-59.2s-24.9-59.2-57-59.2-57,26.1-57,59.2,24.9,59.2,57,59.2Z"/>
  </g>
  <g>
    <path class="cls-2" d="M213.1,207.6h-16.5v-21.8c-7.2,19.9-18.8,24.8-58.6,24.8s-35.7-2.3-44.5-9c-8.8-6.7-12.3-16.2-12.3-34.5v-69h16.5v68.1c0,23.6,8.1,29,45,29s54-8.8,54-32.7v-64.4h16.5v109.6Z"/>
    <path class="cls-2" d="M250.2,51.7h16.5v155.9h-16.5V51.7Z"/>
    <path class="cls-2" d="M283.5,98h26.4l.5-24.3h16.5l-.5,24.3h75.3v13.9h-75.5l-.9,54.9c-.5,23.9,5.1,28.5,35,28.5s22.5-2.3,26.2-8.3c2.5-3.7,2.8-7,2.8-23.2v-3.7h14.8v4.4c0,22-.9,27.6-5.6,33.4-6.5,8.1-18.1,11.4-39.4,11.4s-33.8-2.3-41.5-9.3c-7.2-6.5-9-12.3-9-28v-5.1l1.2-54.9h-26.2v-13.9Z"/>
    <path class="cls-2" d="M432.5,51.7h16.5v20.2h-16.5v-20.2ZM432.5,98h16.5v109.6h-16.5v-109.6Z"/>
    <path class="cls-2" d="M486,98h16.5v21.5c6.7-18.5,17.6-23.2,54.2-23.2s42.6,5.6,48.2,23.2c7.2-18.1,20.4-23.2,59.5-23.2s53.1,9.3,53.1,42.2v69h-16.5v-68.4c0-23.2-8.1-29-41-29s-50,9.5-50,32.9v64.4h-16.5v-68.4c0-23.2-8.1-29-41-29s-50,9.3-50,32.9v64.4h-16.5v-109.6Z"/>
    <path class="cls-2" d="M755,129.8c.2-14.4,3.7-22,12-26.9,8.8-5.1,18.8-6.5,47.3-6.5s48.9,1.9,58.6,9.5c8.1,6.5,10.4,13.9,10.4,34.1v67.7h-16.5v-14.8c-5.6,13.9-13.9,16.5-51.4,16.5s-46.6-1.2-54.5-7c-8.1-5.6-11.1-13-11.1-27.3s3-22,9.5-26.4c7.9-5.3,21.1-7.2,53.3-7.2s35.7.9,42.2,3.5c6.3,2.5,9.3,5.6,12,11.6v-11.6c0-31.7-4.2-34.5-52.1-34.5s-41.9,2.5-42.2,19.5h-17.6ZM766.9,175.7c0,9.5,3.7,15.5,10.9,17.4,6.5,1.9,14.4,2.3,38.2,2.3s31.5-.7,38-3c9.3-3,13.2-8.6,13.2-18.1s-3-12-9-15.3c-5.1-2.5-16.7-3.7-40.5-3.7-43.3,0-50.7,3-50.7,20.4Z"/>
    <path class="cls-2" d="M905.2,98h26.4l.5-24.3h16.5l-.5,24.3h75.3v13.9h-75.5l-.9,54.9c-.5,23.9,5.1,28.5,35,28.5s22.5-2.3,26.2-8.3c2.5-3.7,2.8-7,2.8-23.2v-3.7h14.8v4.4c0,22-.9,27.6-5.6,33.4-6.5,8.1-18.1,11.4-39.4,11.4s-33.8-2.3-41.5-9.3c-7.2-6.5-9-12.3-9-28v-5.1l1.2-54.9h-26.2v-13.9Z"/>
    <path class="cls-2" d="M1069.5,156c0,18.8,1.4,24.1,7,30.1,7.2,7.6,15.5,9.3,46.3,9.3s48.7-3.9,51-20.6h16.9c-.7,10-3.5,16.5-9.3,22-9.3,9.3-24.8,12.5-59.5,12.5s-47.3-3-56.3-10.9c-9.5-8.3-13.4-21.8-13.4-45.4s3.9-37.3,13.4-45.6c9-7.9,24.6-10.9,56.1-10.9s51.9,3.9,60.7,16.2c6.5,8.8,8.8,19.7,8.6,43.3h-121.4ZM1173.5,142.5c-.2-8.8-.9-13.2-3.2-17.8-6.3-11.6-15.3-14.4-48.7-14.4s-42.9,2.8-48.9,14.4c-2.3,4.4-3,8.6-3.2,17.8h104Z"/>
  </g>
</svg>